<svg width="20" height="27" viewBox="0 0 20 27" fill="none" xmlns="http://www.w3.org/2000/svg">
<path fill-rule="evenodd" clip-rule="evenodd" d="M12.5845 0.983693C12.9418 1.13583 13.1738 1.48666 13.1738 1.87502V10.9143H18.25C18.5945 10.9143 18.9131 11.0973 19.0867 11.3948C19.2603 11.6924 19.2629 12.0597 19.0934 12.3597L18.4578 13.4845C16.0474 17.7504 12.9734 21.6055 9.35116 24.9052L8.32363 25.8412C8.04003 26.0995 7.6307 26.1662 7.27979 26.0112C6.92888 25.8561 6.7025 25.5086 6.7025 25.125V16.1623H1.45834C0.92331 16.1623 0.489586 15.7286 0.489586 15.1936C0.489586 15.0203 0.535085 14.8576 0.614789 14.7169C2.88656 10.5171 5.79511 6.69445 9.23703 3.38491L11.5336 1.17672C11.8135 0.907535 12.2272 0.831561 12.5845 0.983693ZM3.11758 14.2248H7.67125C8.20628 14.2248 8.64 14.6586 8.64 15.1936V22.9221C11.764 19.9699 14.4418 16.5776 16.5882 12.8519H12.205C11.67 12.8519 11.2363 12.4181 11.2363 11.8831V4.15045L10.5799 4.78153C7.67268 7.57696 5.1626 10.7545 3.11758 14.2248Z" fill="#4C4E64"/>
</svg>
