<svg width="21" height="27" viewBox="0 0 21 27" fill="none" xmlns="http://www.w3.org/2000/svg">
<path d="M13.124 15.004C13.5418 14.6697 14.1514 14.7375 14.4857 15.1552C14.8199 15.573 14.7522 16.1827 14.3344 16.5169L11.113 19.094C10.9468 19.2299 10.7346 19.3118 10.5032 19.3125L10.5001 19.3125L10.4919 19.3125C10.2645 19.3106 10.0558 19.2304 9.89142 19.0975L6.6657 16.5169C6.24791 16.1827 6.18018 15.573 6.51441 15.1552C6.84863 14.7375 7.45826 14.6697 7.87605 15.004L9.53133 16.3282V11.8854C9.53133 11.3504 9.96505 10.9167 10.5001 10.9167C11.0351 10.9167 11.4688 11.3504 11.4688 11.8854V16.3281L13.124 15.004Z" fill="#4C4E64"/>
<path fill-rule="evenodd" clip-rule="evenodd" d="M4.04167 0.90625C2.07991 0.90625 0.489586 2.49657 0.489586 4.45833V22.5417C0.489586 24.5034 2.07991 26.0938 4.04167 26.0938H16.9583C18.9201 26.0938 20.5104 24.5034 20.5104 22.5417V8.58895C20.5104 8.11605 20.3621 7.65505 20.0863 7.27087L16.1943 1.84858C15.7697 1.25703 15.0862 0.90625 14.358 0.90625H4.04167ZM2.42709 4.45833C2.42709 3.56662 3.14996 2.84375 4.04167 2.84375H13.4063V8.52327C13.4063 9.05829 13.84 9.49202 14.375 9.49202H18.5729V22.5417C18.5729 23.4334 17.85 24.1562 16.9583 24.1562H4.04167C3.14996 24.1562 2.42709 23.4334 2.42709 22.5417V4.45833Z" fill="#4C4E64"/>
</svg>
