<svg width="18" height="18" viewBox="0 0 18 18" fill="none" xmlns="http://www.w3.org/2000/svg">
<path fill-rule="evenodd" clip-rule="evenodd" d="M5.43752 7.5C5.43752 5.53249 7.0325 3.9375 9.00002 3.9375C10.9675 3.9375 12.5625 5.53249 12.5625 7.5C12.5625 9.46751 10.9675 11.0625 9.00002 11.0625C7.0325 11.0625 5.43752 9.46751 5.43752 7.5ZM9.00002 5.0625C7.65382 5.0625 6.56252 6.15381 6.56252 7.5C6.56252 8.84619 7.65382 9.9375 9.00002 9.9375C10.3462 9.9375 11.4375 8.84619 11.4375 7.5C11.4375 6.15381 10.3462 5.0625 9.00002 5.0625Z" fill="#828292"/>
<path fill-rule="evenodd" clip-rule="evenodd" d="M2.64329 6.64264C2.90904 3.41868 5.60315 0.9375 8.83804 0.9375H9.162C12.3969 0.9375 15.091 3.41868 15.3567 6.64264C15.4995 8.3745 14.9645 10.0942 13.8645 11.4394L10.2698 15.8358C9.6135 16.6383 8.38654 16.6384 7.73029 15.8358L4.13549 11.4394C3.0355 10.0942 2.50054 8.3745 2.64329 6.64264ZM8.83804 2.0625C6.18864 2.0625 3.98214 4.09461 3.76449 6.73506C3.64568 8.17644 4.09091 9.60768 5.00641 10.7273L8.6012 15.1236C8.80733 15.3757 9.19271 15.3757 9.39884 15.1236L12.9936 10.7273C13.9091 9.60767 14.3544 8.17644 14.2355 6.73506C14.0179 4.09461 11.8114 2.0625 9.162 2.0625H8.83804Z" fill="#828292"/>
</svg>
