<svg width="6" height="6" viewBox="0 0 6 6" fill="none" xmlns="http://www.w3.org/2000/svg">
<path fill-rule="evenodd" clip-rule="evenodd" d="M1.33333 0.0830078C1.4714 0.0830078 1.58333 0.194937 1.58333 0.333008V0.888884C2.52591 0.804942 3.47409 0.804942 4.41667 0.888886V0.333008C4.41667 0.194937 4.5286 0.0830078 4.66667 0.0830078C4.80474 0.0830078 4.91667 0.194937 4.91667 0.333008V0.938486C5.41435 1.00886 5.80752 1.4025 5.87408 1.90462L5.90293 2.12227C6.02428 3.03771 6.0138 3.96582 5.87181 4.87829C5.80147 5.33031 5.43425 5.67749 4.97901 5.72239L4.58134 5.7616C3.52966 5.86532 2.47032 5.86532 1.41864 5.7616L1.02097 5.72239C0.565727 5.67749 0.198507 5.33031 0.12817 4.87829C-0.0138155 3.96582 -0.0242958 3.03771 0.0970494 2.12227L0.1259 1.90462C0.192459 1.40249 0.585642 1.00885 1.08333 0.938483V0.333008C1.08333 0.194937 1.19526 0.0830078 1.33333 0.0830078ZM1.48172 1.40061C2.49145 1.30103 3.50853 1.30103 4.51826 1.40061L4.82008 1.43037C5.10899 1.45886 5.34027 1.68252 5.37842 1.97032L5.40727 2.18797C5.41735 2.26401 5.42647 2.34014 5.43463 2.41634H0.565354C0.573515 2.34014 0.582635 2.26401 0.592714 2.18797L0.621564 1.97032C0.659713 1.68252 0.890988 1.45886 1.1799 1.43037L1.48172 1.40061ZM0.52561 2.91634C0.492884 3.5457 0.525127 4.17741 0.622225 4.80141C0.657505 5.02814 0.841698 5.20228 1.07004 5.2248L1.46771 5.26402C2.48676 5.36451 3.51322 5.36451 4.53227 5.26402L4.92994 5.2248C5.15828 5.20228 5.34248 5.02814 5.37776 4.80141C5.47485 4.17741 5.5071 3.5457 5.47437 2.91634H0.52561Z" fill="#4C4E64"/>
</svg>
