<svg width="5" height="7" viewBox="0 0 5 7" fill="none" xmlns="http://www.w3.org/2000/svg">
<path fill-rule="evenodd" clip-rule="evenodd" d="M1.11459 2.91634C1.11459 2.1512 1.73486 1.53092 2.5 1.53092C3.26515 1.53092 3.88542 2.1512 3.88542 2.91634C3.88542 3.68149 3.26515 4.30176 2.5 4.30176C1.73486 4.30176 1.11459 3.68149 1.11459 2.91634ZM2.5 1.96842C1.97648 1.96842 1.55209 2.39282 1.55209 2.91634C1.55209 3.43986 1.97648 3.86426 2.5 3.86426C3.02352 3.86426 3.44792 3.43986 3.44792 2.91634C3.44792 2.39282 3.02352 1.96842 2.5 1.96842Z" fill="#828292"/>
<path fill-rule="evenodd" clip-rule="evenodd" d="M0.0279415 2.58292C0.131287 1.32916 1.179 0.364258 2.43701 0.364258H2.56299C3.82101 0.364258 4.86872 1.32916 4.97206 2.58292C5.02758 3.25642 4.81954 3.92518 4.39176 4.44834L2.99379 6.15803C2.73858 6.47014 2.26143 6.47014 2.00622 6.15803L0.608242 4.44834C0.180466 3.92519 -0.027574 3.25642 0.0279415 2.58292ZM2.43701 0.801758C1.40669 0.801758 0.548604 1.59202 0.463963 2.61886C0.417759 3.1794 0.590905 3.73599 0.946931 4.1714L2.34491 5.88109C2.42507 5.97912 2.57494 5.97912 2.6551 5.88109L4.05307 4.1714C4.4091 3.73599 4.58225 3.1794 4.53604 2.61886C4.4514 1.59202 3.59332 0.801758 2.56299 0.801758H2.43701Z" fill="#828292"/>
</svg>
