<svg width="24" height="24" viewBox="0 0 24 24" fill="none" xmlns="http://www.w3.org/2000/svg">
<path fill-rule="evenodd" clip-rule="evenodd" d="M11.9998 3.07848L9.78697 5.36798C9.55145 5.61167 9.22707 5.74928 8.88816 5.74928H5.74977V8.88767C5.74977 9.22658 5.61216 9.55096 5.36847 9.78648L3.07897 11.9993L5.36847 14.2121C5.61216 14.4476 5.74977 14.772 5.74977 15.1109V18.2493H8.88816C9.22707 18.2493 9.55145 18.3869 9.78697 18.6306L11.9998 20.9201L14.2126 18.6306C14.4481 18.3869 14.7725 18.2493 15.1114 18.2493H18.2498V15.1109C18.2498 14.772 18.3874 14.4476 18.6311 14.2121L20.9206 11.9993L18.6311 9.78649C18.3874 9.55096 18.2498 9.22658 18.2498 8.88768V5.74928H15.1114C14.7725 5.74928 14.4481 5.61167 14.2126 5.36798L11.9998 3.07848ZM11.101 1.85005C11.5923 1.34165 12.4072 1.34165 12.8986 1.85005L15.2174 4.24928H18.4998C19.1901 4.24928 19.7498 4.80893 19.7498 5.49928V8.78162L22.149 11.1005C22.6574 11.5918 22.6574 12.4067 22.149 12.8981L19.7498 15.2169V18.4993C19.7498 19.1896 19.1901 19.7493 18.4998 19.7493H15.2174L12.8986 22.1485C12.4072 22.6569 11.5923 22.6569 11.101 22.1485L8.7821 19.7493H5.49977C4.80942 19.7493 4.24977 19.1896 4.24977 18.4993V15.217L1.85054 12.8981C1.34214 12.4067 1.34214 11.5918 1.85054 11.1005L4.24977 8.78162V5.49928C4.24977 4.80893 4.80942 4.24928 5.49977 4.24928H8.7821L11.101 1.85005Z" fill="black"/>
<path fill-rule="evenodd" clip-rule="evenodd" d="M7.24977 11.9993C7.24977 9.37593 9.37642 7.24928 11.9998 7.24928C14.6231 7.24928 16.7498 9.37593 16.7498 11.9993C16.7498 14.6226 14.6231 16.7493 11.9998 16.7493C9.37642 16.7493 7.24977 14.6226 7.24977 11.9993ZM11.9998 8.74928C10.2048 8.74928 8.74977 10.2044 8.74977 11.9993C8.74977 13.7942 10.2048 15.2493 11.9998 15.2493C13.7947 15.2493 15.2498 13.7942 15.2498 11.9993C15.2498 10.2044 13.7947 8.74928 11.9998 8.74928Z" fill="black"/>
</svg>
