<svg width="10" height="10" viewBox="0 0 10 10" fill="none" xmlns="http://www.w3.org/2000/svg">
<path d="M4.99998 0.5625C4.13703 0.5625 3.43748 1.26206 3.43748 2.125C3.43748 2.98794 4.13703 3.6875 4.99998 3.6875C5.86292 3.6875 6.56248 2.98794 6.56248 2.125C6.56248 1.26206 5.86292 0.5625 4.99998 0.5625Z" fill="#828292"/>
<path d="M3.33331 4.52083C2.47037 4.52083 1.77081 5.22039 1.77081 6.08333V6.57845C1.77081 6.8923 1.99826 7.15989 2.30801 7.21047C4.09085 7.50154 5.90911 7.50154 7.69195 7.21047C8.00169 7.15989 8.22915 6.8923 8.22915 6.57845V6.08333C8.22915 5.22039 7.52959 4.52083 6.66665 4.52083H6.52462C6.44775 4.52083 6.37136 4.53299 6.29828 4.55685L5.93765 4.67461C5.32837 4.87356 4.67159 4.87356 4.06231 4.67461L3.70168 4.55685C3.6286 4.53299 3.55221 4.52083 3.47534 4.52083H3.33331Z" fill="#828292"/>
</svg>
